<?xml version="1.0" encoding="UTF-8"?>
<svg xmlns="http://www.w3.org/2000/svg" viewBox="0 0 1000 1000">
  <defs>
    <style>
      .cls-1 {
        fill: #fff;
      }
    </style>
  </defs>
  <g id="Layer_3">
    <rect y="0" width="1000" height="1000" rx="128" ry="128"/>
  </g>
  <g id="Logo_Only">
    <g>
      <path class="cls-1" d="M723.46,328.54c-25.66-44.01-68.55-61.55-85.72-68.58,0,0-36.86-15.07-107.56-12.27-6.04.25-12.33.62-18.86,1.14-5.03,31.54-17.61,56.6-28.31,73.26,3-1.16,6.06-2.25,9.15-3.26,57.48-18.83,129.01-12.27,165.15,25.99,16.89,17.86,32.21,52.98,24.32,89.27-7.63,35.07-34.18,55.53-67.94,72.31-8.64,4.29-17.76,8.34-27.15,12.33-58.66,24.95-128.06,47.62-160.24,112.69-43.95,88.89,16.48,202.73,18.25,205.99-.82-2.95-24.37-89.78,16.03-168.85,34.38-67.23,105.44-85.46,167.9-111.52,4.48-1.87,8.92-3.77,13.29-5.73,5.59-2.52,11.08-5.13,16.43-7.89,7.35-3.79,14.45-7.86,21.2-12.32,24.37-15.98,44.26-36.98,55.49-68.27,14.69-40.91,12.35-93.49-11.43-134.29Z"/>
      <path class="cls-1" d="M441.52,177.46c-53.1,8.43-103.99,21.44-103.99,21.44-30.88,7.92-57.68,16.17-80.08,23.73-.27,59.74-.54,119.51-.77,179.3,11.32-5.72,24.15-13.61,37.02-24.6,31.06-26.47,45.98-56.94,52.8-73.91-2.92,20.91-9.5,50.6-25.67,82.97-20.07,40.26-46.25,67.24-64.44,83.06-.15,33.32-.3,66.68-.45,100.03,23.65-41.19,65.34-98.72,137.34-144.91,26.71-17.15,56.13-31.8,87.28-43.81,31.86-49.61,69.33-124.24,84.31-218.17-38.3,3.07-79.42,7.86-123.35,14.86ZM316.3,270.25c-15.9,18.85-24.96,37.64-30.17,51.28v-24.64c0-28.31,17.95-53.6,44.76-62.68.17-.06.33-.11.5-.17,20.76-7,40.11-11.76,57.33-15.1-16.29,6.31-46.49,20.61-72.42,51.31Z"/>
    </g>
  </g>
</svg>